<svg data-v-423bf9ae="" xmlns="http://www.w3.org/2000/svg" viewBox="0 0 166.95296311874253 60" class="font"><!----><!----><!----><g data-v-423bf9ae="" id="efedc009-dffd-4b45-845b-901a7f48bc74" fill="black" transform="matrix(4.089979528831583,0,0,4.089979528831583,-2.290389084817633,-11.697341521692351)"><path d="M0.73 13.80L0.56 13.33L0.88 13.24L0.88 13.24Q1.41 13.09 1.60 12.84L1.60 12.84L1.60 12.84Q1.78 12.59 1.78 11.94L1.78 11.94L1.78 5.61L1.78 5.61Q1.78 4.97 1.60 4.72L1.60 4.72L1.60 4.72Q1.41 4.47 0.88 4.31L0.88 4.31L0.56 4.23L0.73 3.75L3.79 3.75L3.98 3.98L3.79 4.23L3.79 4.23Q3.44 4.69 3.30 5.21L3.30 5.21L3.30 5.21Q3.16 5.73 3.16 6.57L3.16 6.57L3.16 12.04L3.16 12.04Q3.16 12.64 3.33 12.88L3.33 12.88L3.33 12.88Q3.50 13.12 4.02 13.27L4.02 13.27L4.31 13.36L4.16 13.80L0.73 13.80ZM5.40 10.28L5.40 10.28Q5.40 10.00 5.50 9.72L5.50 9.72L5.50 9.72Q5.59 9.44 5.77 9.30L5.77 9.30L9.45 9.16L9.45 9.16Q9.45 9.45 9.37 9.72L9.37 9.72L9.37 9.72Q9.28 10.00 9.09 10.14L9.09 10.14L5.40 10.28ZM13.29 13.31L13.29 13.31Q13.86 13.31 14.23 13.00L14.23 13.00L14.23 13.00Q14.60 12.68 14.60 12.18L14.60 12.18L14.60 12.18Q14.60 11.73 14.22 11.45L14.22 11.45L14.22 11.45Q13.83 11.17 13.08 10.85L13.08 10.85L13.08 10.85Q12.39 10.57 11.93 10.30L11.93 10.30L11.93 10.30Q11.48 10.04 11.16 9.61L11.16 9.61L11.16 9.61Q10.84 9.18 10.84 8.55L10.84 8.55L10.84 8.55Q10.84 7.71 11.56 7.19L11.56 7.19L11.56 7.19Q12.28 6.66 13.38 6.66L13.38 6.66L13.38 6.66Q14.38 6.66 15.04 7.06L15.04 7.06L15.04 7.06Q15.69 7.45 15.69 8.11L15.69 8.11L15.69 8.11Q15.69 8.64 15.36 8.98L15.36 8.98L15.36 8.98Q15.04 9.32 14.52 9.32L14.52 9.32L14.52 9.32Q14.22 9.32 14.22 9.14L14.22 9.14L14.22 9.14Q14.22 9.09 14.33 8.86L14.33 8.86L14.33 8.86Q14.43 8.62 14.43 8.36L14.43 8.36L14.43 8.36Q14.43 7.84 14.08 7.59L14.08 7.59L14.08 7.59Q13.73 7.34 13.29 7.34L13.29 7.34L13.29 7.34Q12.71 7.34 12.38 7.62L12.38 7.62L12.38 7.62Q12.05 7.91 12.05 8.36L12.05 8.36L12.05 8.36Q12.05 8.88 12.47 9.19L12.47 9.19L12.47 9.19Q12.88 9.51 13.69 9.84L13.69 9.84L13.69 9.84Q14.36 10.12 14.81 10.37L14.81 10.37L14.81 10.37Q15.26 10.61 15.57 10.99L15.57 10.99L15.57 10.99Q15.88 11.37 15.88 11.90L15.88 11.90L15.88 11.90Q15.88 12.85 15.12 13.43L15.12 13.43L15.12 13.43Q14.36 14 13.10 14L13.10 14L13.10 14Q12.04 14 11.35 13.52L11.35 13.52L11.35 13.52Q10.67 13.05 10.67 12.25L10.67 12.25L10.67 12.25Q10.67 11.77 10.99 11.47L10.99 11.47L10.99 11.47Q11.31 11.16 11.83 11.16L11.83 11.16L11.83 11.16Q12.12 11.16 12.12 11.33L12.12 11.33L12.12 11.33Q12.12 11.37 12.04 11.59L12.04 11.59L12.04 11.59Q11.96 11.80 11.96 12.11L11.96 12.11L11.96 12.11Q11.96 12.70 12.37 13.01L12.37 13.01L12.37 13.01Q12.78 13.31 13.29 13.31L13.29 13.31ZM18.16 4.37L18.16 4.37Q18.16 4.20 18.10 4.13L18.10 4.13L18.10 4.13Q18.03 4.06 17.88 4.06L17.88 4.06L17.26 4.06L17.14 3.70L17.14 3.70Q17.54 3.33 18.07 3.09L18.07 3.09L18.07 3.09Q18.59 2.86 18.98 2.86L18.98 2.86L18.98 2.86Q19.18 2.86 19.31 2.98L19.31 2.98L19.31 2.98Q19.43 3.11 19.43 3.30L19.43 3.30L19.43 8.75L19.43 8.75Q19.80 7.84 20.52 7.25L20.52 7.25L20.52 7.25Q21.25 6.66 22.05 6.66L22.05 6.66L22.05 6.66Q23.07 6.66 23.50 7.27L23.50 7.27L23.50 7.27Q23.93 7.87 23.93 9.21L23.93 9.21L23.93 12.60L23.93 12.60Q23.93 13.08 24.35 13.08L24.35 13.08L24.35 13.08Q24.70 13.08 25.05 12.78L25.05 12.78L25.31 13.15L25.31 13.15Q24.95 13.55 24.53 13.79L24.53 13.79L24.53 13.79Q24.11 14.03 23.74 14.03L23.74 14.03L23.74 14.03Q23.17 14.03 22.92 13.68L22.92 13.68L22.92 13.68Q22.67 13.33 22.67 12.54L22.67 12.54L22.67 9.21L22.67 9.21Q22.67 8.47 22.39 8.11L22.39 8.11L22.39 8.11Q22.12 7.76 21.46 7.76L21.46 7.76L21.46 7.76Q20.86 7.76 20.41 8.23L20.41 8.23L20.41 8.23Q19.95 8.71 19.69 9.58L19.69 9.58L19.69 9.58Q19.43 10.44 19.43 11.56L19.43 11.56L19.43 11.56Q19.43 12.22 19.53 12.61L19.53 12.61L19.53 12.61Q19.63 13.01 19.88 13.37L19.88 13.37L20.05 13.59L19.88 13.80L17.43 13.80L17.28 13.37L17.57 13.30L17.57 13.30Q17.92 13.22 18.04 13.00L18.04 13.00L18.04 13.00Q18.16 12.78 18.16 12.25L18.16 12.25L18.16 4.37ZM26.22 10.33L26.22 10.33Q26.22 9.21 26.63 8.39L26.63 8.39L26.63 8.39Q27.05 7.56 27.82 7.11L27.82 7.11L27.82 7.11Q28.60 6.66 29.64 6.66L29.64 6.66L29.64 6.66Q30.67 6.66 31.44 7.11L31.44 7.11L31.44 7.11Q32.21 7.56 32.63 8.39L32.63 8.39L32.63 8.39Q33.05 9.21 33.05 10.33L33.05 10.33L33.05 10.33Q33.05 11.44 32.63 12.27L32.63 12.27L32.63 12.27Q32.21 13.10 31.44 13.55L31.44 13.55L31.44 13.55Q30.67 14 29.64 14L29.64 14L29.64 14Q28.60 14 27.82 13.55L27.82 13.55L27.82 13.55Q27.05 13.10 26.63 12.27L26.63 12.27L26.63 12.27Q26.22 11.44 26.22 10.33L26.22 10.33ZM31.58 10.37L31.58 10.37Q31.58 9.72 31.40 9.03L31.40 9.03L31.40 9.03Q31.22 8.34 30.79 7.87L30.79 7.87L30.79 7.87Q30.37 7.39 29.68 7.39L29.68 7.39L29.68 7.39Q29.09 7.39 28.64 7.76L28.64 7.76L28.64 7.76Q28.18 8.13 27.93 8.81L27.93 8.81L27.93 8.81Q27.68 9.48 27.68 10.35L27.68 10.35L27.68 10.35Q27.68 11.68 28.20 12.46L28.20 12.46L28.20 12.46Q28.71 13.24 29.60 13.24L29.60 13.24L29.60 13.24Q30.17 13.24 30.63 12.89L30.63 12.89L30.63 12.89Q31.08 12.53 31.33 11.88L31.33 11.88L31.33 11.88Q31.58 11.23 31.58 10.37L31.58 10.37ZM36.39 7.55L36.39 7.55Q37.30 6.66 38.40 6.66L38.40 6.66L38.40 6.66Q39.27 6.66 39.95 7.10L39.95 7.10L39.95 7.10Q40.63 7.53 41.01 8.30L41.01 8.30L41.01 8.30Q41.38 9.07 41.38 10.05L41.38 10.05L41.38 10.05Q41.38 11.17 40.98 12.07L40.98 12.07L40.98 12.07Q40.59 12.98 39.89 13.49L39.89 13.49L39.89 13.49Q39.19 14 38.30 14L38.30 14L38.30 14Q37.48 14 36.90 13.62L36.90 13.62L36.90 13.62Q36.78 13.54 36.78 13.37L36.78 13.37L36.78 13.37Q36.78 13.23 36.83 13.13L36.83 13.13L36.83 13.13Q36.88 13.02 36.99 13.02L36.99 13.02L36.99 13.02Q37.04 13.02 37.30 13.13L37.30 13.13L37.30 13.13Q37.56 13.24 37.98 13.24L37.98 13.24L37.98 13.24Q38.53 13.24 38.97 12.87L38.97 12.87L38.97 12.87Q39.41 12.49 39.66 11.82L39.66 11.82L39.66 11.82Q39.90 11.16 39.90 10.33L39.90 10.33L39.90 10.33Q39.90 9.53 39.66 8.91L39.66 8.91L39.66 8.91Q39.41 8.29 38.97 7.94L38.97 7.94L38.97 7.94Q38.53 7.59 37.95 7.59L37.95 7.59L37.95 7.59Q37.10 7.59 36.39 8.13L36.39 8.13L36.39 15.97L36.39 15.97Q36.39 16.51 36.50 16.72L36.50 16.72L36.50 16.72Q36.62 16.94 36.97 17.02L36.97 17.02L37.27 17.09L37.11 17.53L34.68 17.53L34.51 17.32L34.68 17.09L34.68 17.09Q34.93 16.73 35.03 16.34L35.03 16.34L35.03 16.34Q35.13 15.95 35.13 15.29L35.13 15.29L35.13 8.47L35.13 8.47Q35.13 8.25 35.06 8.15L35.06 8.15L35.06 8.15Q35 8.05 34.83 8.01L34.83 8.01L34.10 7.85L34.10 7.39L34.10 7.39Q34.33 7.20 34.96 7.01L34.96 7.01L34.96 7.01Q35.59 6.83 36.05 6.83L36.05 6.83L36.05 6.83Q36.39 6.83 36.39 7.48L36.39 7.48L36.39 7.55Z"></path></g><!----><!----></svg>